<svg xmlns="http://www.w3.org/2000/svg" viewBox="0 0 160 32">
    <defs>
        <style>
            .cls-1 {
            fill: #b52230;
            }

            .cls-1, .cls-2 {
            fill-rule: evenodd;
            }

            .cls-2 {
            fill: #5f5f64;
            }
        </style>
    </defs>
    <path id="symbol" class="cls-1" d="M159.459 12.332L142 .288a1.331 1.331 0 0 0-1.237-.209 1.7 1.7 0 0 0-.968 1.374L137 16.478c-.2 1.088-.181 2.409.253 2.707a5.093 5.093 0 0 0 2.888-.127l18.675-4.838a1.452 1.452 0 0 0 1.194-.9 1.013 1.013 0 0 0-.555-.985m-20.528 2.678a4.475 4.475 0 0 1 .119-.623l2.375-9.532a1.724 1.724 0 0 1 .926-1.284.787.787 0 0 1 .722.119c.671.463.776 1.762.23 2.836l-4 7.854a4.692 4.692 0 0 1-.367.63m.626 2.159a1.06 1.06 0 0 1 .223-1.114l5.572-8.1a2.328 2.328 0 0 1 1.488-1.107 1.443 1.443 0 0 1 1.118.215L153.673 11a.792.792 0 0 1 .442.737 1.263 1.263 0 0 1-.987.775l-12.614 4.7a.965.965 0 0 1-.957-.043z"></path>
    <path id="text" class="cls-2" d="M81.158 12.136a4.775 4.775 0 0 0-1.736-1.747 9.065 9.065 0 0 0-2.878-1.07 17.626 17.626 0 0 0-3.405-.291 22.022 22.022 0 0 0-3.376.266c-1.127.175-1.519.284-1.535.288a1.262 1.262 0 0 0-.908.905L67.1 12.1a.751.751 0 0 0 .043.7l.057.045a.719.719 0 0 0 .092 0 6.911 6.911 0 0 0 .852-.22c.014 0 1.367-.41 2.329-.591a14.46 14.46 0 0 1 2.636-.274 14.643 14.643 0 0 1 1.871.116 4.537 4.537 0 0 1 1.491.433 2.378 2.378 0 0 1 .992.909 2.675 2.675 0 0 1 .286.922c.032.3.058.633.061.764a1.243 1.243 0 0 1-.574.131c-.027 0-2.729.155-4.266.311a15.285 15.285 0 0 0-4.051.911 6.1 6.1 0 0 0-2.6 1.869 4.954 4.954 0 0 0-.916 3.1 4.873 4.873 0 0 0 1.753 3.846 6.381 6.381 0 0 0 4.3 1.518 10.928 10.928 0 0 0 2.394-.234 10.316 10.316 0 0 0 1.8-.579 8.761 8.761 0 0 0 1.358-.727c.448-.291.512-.33.515-.332a.419.419 0 0 1 .315-.069.315.315 0 0 1 .217.193l.274.637a1.312 1.312 0 0 0 1.166.658h1.269a.857.857 0 0 0 .938-.734v-9.965c0-.327-.026-.858-.054-1.184a7.6 7.6 0 0 0-.494-2.117m-3.343 5.853v3.373a1.148 1.148 0 0 1-.518.836 16.18 16.18 0 0 1-1.85.975 7.24 7.24 0 0 1-2.845.546 3.848 3.848 0 0 1-2.525-.668 2.361 2.361 0 0 1-.887-2.009 2.342 2.342 0 0 1 .765-1.854 4 4 0 0 1 1.828-1 18.541 18.541 0 0 1 2.95-.417c1.242-.1 2.525-.174 2.537-.175a.608.608 0 0 1 .387.1.365.365 0 0 1 .158.293zm-47.883-1.083c-.372-.149-.987-.375-1.372-.5l-1.094-.36a6.093 6.093 0 0 1-2.037-1 1.361 1.361 0 0 1-.556-1.06 1.571 1.571 0 0 1 .823-1.31 4.647 4.647 0 0 1 2.561-.565 32.941 32.941 0 0 1 4.2.614.864.864 0 0 0 .657-.1.488.488 0 0 0 .212-.5l-.2-1.274a1.04 1.04 0 0 0-.607-.823l-.015-.001h-.016a30.26 30.26 0 0 0-4.284-.381 9.381 9.381 0 0 0-5.428 1.313 3.948 3.948 0 0 0-1.855 3.3 3.526 3.526 0 0 0 1.194 2.689 13.6 13.6 0 0 0 3.043 1.642c.371.15.986.376 1.371.5l1.475.497a5.759 5.759 0 0 1 2.347 1.163 1.744 1.744 0 0 1 .494 1.148 1.822 1.822 0 0 1-.989 1.571 4.612 4.612 0 0 1-2.512.641 27.983 27.983 0 0 1-5.526-1.175.816.816 0 0 0-.651.038.46.46 0 0 0-.219.481l.293 2.083.013.1.116.029a23.74 23.74 0 0 0 5.826.912 12 12 0 0 0 4.02-.644 6.122 6.122 0 0 0 2.759-1.8 3.889 3.889 0 0 0 .938-2.5 3.978 3.978 0 0 0-1.008-2.6c-.673-.795-3.838-2.073-3.973-2.128zm22.784-7.26a9.182 9.182 0 0 0-3.96.9 13.976 13.976 0 0 0-2.832 2.076.457.457 0 0 1-.125.09.3.3 0 0 1-.023-.131V3.511a.619.619 0 0 0-.28-.511 1.024 1.024 0 0 0-.672-.168l-2.2.176a.919.919 0 0 0-.914.793v21.677a.855.855 0 0 0 .937.734h2.193a.855.855 0 0 0 .937-.734v-9.643a9.786 9.786 0 0 1 3.327-2.722 7.513 7.513 0 0 1 2.857-.641 3.429 3.429 0 0 1 1.349.268 2.221 2.221 0 0 1 .971.753 4.653 4.653 0 0 1 .311 1.528c.023.321.04.844.04 1.166v9.291a.856.856 0 0 0 .938.734h2.193a.855.855 0 0 0 .937-.734V14.632a4.44 4.44 0 0 0-1.661-3.658 6.757 6.757 0 0 0-4.323-1.327zm47.112 0a8.878 8.878 0 0 0-4.009.861 10.06 10.06 0 0 0-2.433 2.069.32.32 0 0 1-.146.111.244.244 0 0 1-.079-.147L92.7 10.7a1.112 1.112 0 0 0-1.079-.7h-1.446a.857.857 0 0 0-.938.735v20.529a.857.857 0 0 0 .938.734h2.193a.855.855 0 0 0 .937-.734v-6.622a6.639 6.639 0 0 0 3.261 1.694 19.759 19.759 0 0 0 2.666.239 8.7 8.7 0 0 0 4.612-1.248 7.573 7.573 0 0 0 2.99-3.333 10.427 10.427 0 0 0 .953-4.375 8.1 8.1 0 0 0-2.068-5.743 7.719 7.719 0 0 0-5.9-2.229M93.3 15a10.85 10.85 0 0 1 2.838-1.9 7.183 7.183 0 0 1 2.9-.633 3.874 3.874 0 0 1 3.343 1.437 6.565 6.565 0 0 1 1.106 4.01 7.556 7.556 0 0 1-1.254 4.482 4.305 4.305 0 0 1-3.782 1.712 7.87 7.87 0 0 1-2.305-.328 15.434 15.434 0 0 1-2.331-1.257 1.179 1.179 0 0 1-.512-.849V15zm28.919-5.355a10.514 10.514 0 0 0-4.726 1 7.89 7.89 0 0 0-3.25 3.064 8.289 8.289 0 0 0-1.234 4.324 7.878 7.878 0 0 0 2.8 5.99 11.069 11.069 0 0 0 7.691 2.548 37.584 37.584 0 0 0 5.377-.719 1.214 1.214 0 0 0 .963-.852l.279-1.723.039-.239-.29.084a27.942 27.942 0 0 1-3.461.829 16.409 16.409 0 0 1-2.256.157 9.172 9.172 0 0 1-3.634-.622 5.665 5.665 0 0 1-2.275-1.735 9.675 9.675 0 0 1-1.025-2.642.287.287 0 0 1 .083-.287.5.5 0 0 1 .344-.117h11.632a.878.878 0 0 0 .952-.732l.008-.29c0-2.651-.73-4.672-2.171-6.012a8.278 8.278 0 0 0-5.842-2.028m-.276 2.463a4.632 4.632 0 0 1 3.034.977c.774.64 1.1 2.719 1.1 2.74a.318.318 0 0 1-.112.3.544.544 0 0 1-.363.121h-8.386a4.826 4.826 0 0 1 1.423-3.08 4.809 4.809 0 0 1 3.304-1.054zM12.171 18.318a11.508 11.508 0 0 0-2.929-.842 10.322 10.322 0 0 0 2.365-.9 5.332 5.332 0 0 0 1.658-1.354 2.777 2.777 0 0 0 .558-1.719 3.161 3.161 0 0 0-1.915-2.79 12.574 12.574 0 0 0-5.824-1.042c-.75 0-1.53.036-2.318.105s-2.612.477-2.689.494a.486.486 0 0 0-.382.623c0 .044.006.091.006.135L.331 12.9l-.052.261.311-.1a17 17 0 0 1 5.275-.961 7.158 7.158 0 0 1 3.44.559 1.339 1.339 0 0 1 .863 1.22c.008.462-.464.979-1.365 1.495a6.1 6.1 0 0 1-3.416.985H5.336c-.346.03-.881.061-1.192.067a.78.78 0 0 0-.755.8v.625a.811.811 0 0 0 .827.79h.653A7.994 7.994 0 0 1 9.516 19.8c1.014.685 1.246 1.045 1.242 1.923 0 .589-.422 1.089-1.4 1.669a7.194 7.194 0 0 1-3.69.845 39.573 39.573 0 0 1-4.813-.722.844.844 0 0 0-.6.082.487.487 0 0 0-.255.423v.024l.375 2.011.019.1.133.018a37.649 37.649 0 0 0 5.366.49c3.1 0 5.356-.505 6.694-1.5a4.307 4.307 0 0 0 2.021-3.443 3.327 3.327 0 0 0-.617-1.919 4.641 4.641 0 0 0-1.82-1.483z"></path>
</svg>